<svg width="18" height="18" viewBox="0 0 18 18" fill="none" xmlns="http://www.w3.org/2000/svg">
<path fill-rule="evenodd" clip-rule="evenodd" d="M8.99187 0.666748C4.39187 0.666748 0.66687 4.40008 0.66687 9.00008C0.66687 13.6001 4.39187 17.3334 8.99187 17.3334C13.6002 17.3334 17.3335 13.6001 17.3335 9.00008C17.3335 4.40008 13.6002 0.666748 8.99187 0.666748ZM9.00037 15.6667C5.31703 15.6667 2.3337 12.6834 2.3337 9.00008C2.3337 5.31675 5.31703 2.33341 9.00037 2.33341C12.6837 2.33341 15.667 5.31675 15.667 9.00008C15.667 12.6834 12.6837 15.6667 9.00037 15.6667ZM8.16687 4.83341H9.41687V9.20841L13.1669 11.4334L12.5419 12.4584L8.16687 9.83341V4.83341Z" fill="#2F80ED"/>
</svg>
